<?xml version="1.0"?>
<svg xmlns="http://www.w3.org/2000/svg" version="1.2" baseProfile="tiny" width="800" height="1469" viewBox="0 0 800 1469" stroke-linecap="round" stroke-linejoin="round">
<g id="ne_10m_admin_0_countries" fill="#D9DBDE">
<path d="M 14.18 1366.68 17.89 1367.69 8.35 1369.79 5.56 1366.66 14.18 1366.68 Z M 144.65 1462.83 142.79 1468.03 135.63 1464.74 139.44 1464.78 142 1459.72 146.32 1462.74 144.65 1462.83 Z M 16.92 1349.56 14.61 1350.43 15.96 1352.97 14.23 1355.31 16.77 1355.51 12.64 1356.33 15.81 1357.35 15.18 1359.59 17.38 1359.39 16.25 1362.15 18.59 1363.25 18.24 1365.45 12.69 1362.88 10.94 1364.83 11.57 1361.96 9.62 1359.92 10.34 1362.02 7.87 1361.63 9.38 1365.32 5.74 1364.73 4.46 1366.77 5.01 1360.49 10.72 1354.92 10.58 1346 18.38 1345.72 19.15 1347.83 16.92 1349.56 Z M 530.82 1284.74 529.67 1290.44 526.39 1289.85 526.09 1286.39 528.73 1283.86 530.82 1284.74 Z M 785.16 966.68 786.45 967.95 781.01 972.15 781.07 965.74 784.28 964.82 785.16 966.68 Z M 777.25 943.07 776.36 940.08 779.13 937.26 778.79 934.7 771.37 933.08 772.05 935.48 776.13 936.93 772.04 940.19 773.41 945.87 776.32 945.52 779.82 952.7 766.27 956.14 763.32 949.06 770.91 943.78 769.29 938.12 766.28 935.27 762.04 936.93 756.16 935.32 759.81 931.66 766.26 932.99 769.71 929.5 778.06 933.25 788.43 933.73 786.52 936.08 782.77 935.46 777.25 943.07 Z M 795.57 4.77 793.14 1 796.92 2 799 5.04 795.57 4.77 Z M 18.84 1182.71 19.2 1187.08 16.12 1185.55 18.84 1182.71 Z M 59.27 1102.49 57.57 1103.08 57.35 1101.41 59.27 1102.49 Z M 97.49 1096.83 96.57 1101.26 95.5 1098.68 97.49 1096.83 Z M 81.67 1117.84 84.41 1120.03 81.39 1119.1 81.09 1121.46 74.22 1122.69 69.35 1127.59 64.4 1126.82 63.2 1124.75 57.11 1129.93 61.83 1129.17 59.71 1132.83 59.07 1131.34 53.25 1134.08 53.93 1128.63 57.46 1126.38 56.93 1120.54 61.82 1117.82 61.22 1113.26 64.39 1110.25 61.51 1103.82 62.32 1096.74 70.19 1096.4 80.08 1106.26 79.74 1109.18 72.76 1108.68 71.27 1113.71 74.67 1110.88 79.25 1112.77 78.49 1114.52 82.71 1112.93 83.72 1117.28 81.67 1117.84 Z M 9.88 1031.59 11.68 1038.58 7.77 1039.61 6.16 1034.57 1.3 1039.21 3.54 1033.43 9.88 1031.59 Z M 19.4 1001.94 22.77 1010.44 16.18 1007.3 19.4 1001.94 Z M 356.22 734.97 356.13 740.59 347.3 742.68 354.73 739.33 355.51 737.12 353.55 736.23 356.22 734.97 Z M 327.72 721.98 327.76 717.65 330.7 719.85 329.09 716.4 330.11 712.51 332.65 712.45 332.74 715.57 335.4 713.83 333.75 713.81 336.54 709.48 334.35 719.48 328.71 723.2 327.72 721.98 Z M 278.33 872.32 277.47 880.9 279.78 889.96 278.34 890.56 282.24 892.74 275.3 895.15 283.19 894.63 284.25 897 285.08 893.55 286.68 898.07 289.03 895.68 291.11 897.45 292.97 895.68 295.17 901.82 294.25 908.76 289.83 910.96 287.61 902.22 286.61 907.87 288.4 912.01 281.59 910.49 278.27 906.91 279.1 904.87 263.47 908.87 273.78 904.25 266.83 900.43 263.17 901.44 261.35 909.51 255.55 910.63 238.19 922.08 229.05 925.79 214.57 936.45 211.38 947.95 207.1 953.64 208.94 976.37 196.98 997.79 194.7 1013.33 191.84 1018.71 189.93 1018.48 190.61 1021.03 186.83 1022.35 188.56 1023.72 187.57 1026.05 184.44 1027.86 190.46 1032.16 186.66 1033.79 181.7 1040.01 191.23 1032.36 191.49 1038.45 171.99 1045.74 167.25 1058.07 153.67 1069.5 151.77 1077.37 143.51 1079.28 147.75 1079.58 142.69 1084.8 139.66 1084.08 135.98 1086.59 136.97 1087.89 128.71 1088.5 124.76 1090.85 122.89 1088.07 121.93 1091.05 117.86 1089.7 116.79 1092.59 110.29 1091.27 108.04 1085.29 100.24 1087.07 102.26 1085.66 98.05 1085.02 99.44 1088.42 97.13 1089.33 89.55 1088.98 91.24 1086.97 95.88 1087.54 86.98 1085.2 87.82 1090.22 82.64 1084.57 85.25 1085.08 87.68 1082.57 86.66 1077.36 83.96 1081.44 77.67 1072.79 72.8 1074.21 72.94 1076.03 63.29 1077.3 58.67 1073.07 60.7 1071.16 56.94 1065.27 51.36 1063.21 45.26 1063.03 43.64 1069.58 38.87 1071.36 15.14 1069.73 10.81 1065.83 17.16 1055.59 22.2 1051.56 15.82 1055.16 13.91 1060.27 12.94 1057.95 12.51 1059.98 8.04 1061.87 9.47 1056.14 15.76 1051.19 10.61 1052.22 12.55 1047 7.99 1054.03 1.72 1057.25 1 1044.52 18.6 1041.14 24.05 1035.7 13.19 1037.88 18.04 1033.1 13.03 1033.92 12.5 1031.02 17.23 1027.72 22.18 1028.04 23.07 1027.06 20.28 1026.35 24.59 1022.51 12.93 1028.7 9.18 1027.88 11.36 1018.28 13.28 1017.06 19.76 1019.38 17.58 1015.88 17.15 1017.39 12.97 1014.81 14.9 1010.46 19.54 1012.38 18.45 1014.25 23.65 1014.3 22.32 1018.52 24.78 1018.18 25.96 1015.42 31.26 1021.19 23.49 1012.09 29.24 1008.97 32.98 1011.69 35.12 1010.37 32.16 1009.98 32.09 1006.74 23.22 1008.45 20.74 1000.97 23.28 999.06 28.66 1002.17 22.76 997.76 25.33 993.59 29.08 999.48 29.2 996.83 32.6 996.58 28.26 994.51 27.19 990.43 35.68 992.01 29.17 989.06 29.44 986.71 37.97 980.04 40.47 989.49 42.93 989.37 39.5 976.64 42.36 974.82 43.89 976.12 44.89 982.19 45.71 976.48 43.39 972.88 45.12 971.61 49.42 974.46 45.31 970.41 52.04 963.95 54.69 963.52 60.6 969.38 55.48 957.49 63.83 947.29 63.47 945.21 67.98 944.7 66.66 941.06 75.56 933.58 79.37 927.28 78.08 926.45 90.41 921.03 95.19 923.69 100.17 921.05 125.02 899.4 139.27 893.41 145.42 883.12 152.46 878.95 156.18 872.84 161.89 871.77 164.74 866.87 160.07 870.48 163.97 863.38 168.4 862.5 172.41 857.91 185.98 850.59 199.27 833.65 206.61 820.58 218.28 780.99 217.23 776.95 225.36 776.25 235.53 770.26 241.98 756.59 245.61 754.21 246.57 746.9 248.82 746.38 246.99 720.74 266.15 701.73 267.94 701 267.79 704.08 270.29 702.63 271.9 700.15 268.57 700.17 270.42 697.79 282.21 696.13 289.82 697.52 277.5 697.33 275.33 704.93 273.57 705.39 275.24 711.88 276.58 711.01 283.06 717.79 287.27 714.58 290.81 714.84 292.78 725.35 289.83 728.78 291.46 728.78 293.3 735.57 291.79 734.88 291.46 737.15 293.98 739.7 294.11 746.69 300.15 746.85 310.99 736.44 311.49 737.97 317.03 734.36 318.94 731.04 322.34 734.57 325.88 730.21 322.7 730.01 323.96 727.47 331.03 723.2 331.98 726.38 337.72 721.62 339.75 723.77 336.61 723.37 334.08 728.05 327.47 728.59 327.33 734.69 329.77 731.61 335.86 731.67 332.34 732.6 329.73 736.77 331.84 739.65 331.13 742.48 327.02 745.87 334.72 742.95 332.48 741.63 338.15 742.05 344.32 739.17 332.92 740.07 335.52 732.96 337.18 733.37 336.78 737.31 340.15 733.89 339.63 729.08 338 731.33 335.56 728.63 337.98 725.99 342.54 729.24 346.85 726.37 347.92 732.57 353.7 728.77 350.27 736.18 347.85 737.43 347.54 733.9 345.97 735.42 348.26 740.08 334.72 745.67 344.95 743.07 347.38 744.88 353.47 741.89 349.52 748.57 346.16 750.06 347.34 747.68 344.16 748.35 340.12 755.71 340.42 760.81 342.59 763.63 343.24 760.2 348.23 773.99 351.37 774.47 347.6 782.44 337.46 793.38 331.97 806.62 323.07 815.27 323.96 818.97 320.79 817.8 316.2 822.36 303.37 851.66 293.85 858.81 286.03 861.08 281.21 865.29 278.33 872.32 Z M 400.6 458.95 402.94 460.1 401.19 464.28 392.51 462.67 392.9 460.07 397.34 461.46 400.6 458.95 Z M 435.46 452.5 432.9 452.21 431.68 449.31 435.46 452.5 Z M 384.94 436.46 387.09 437.13 387.57 440.16 384.47 440.05 384.94 436.46 Z M 399.65 423.08 400.65 425.49 397.82 426.33 396.85 424.91 399.65 423.08 Z M 420.23 430.33 421.59 432.1 419.31 434.73 416 429.79 409.81 426.35 409.5 424.83 411.66 426.14 412.23 422.71 409.95 420.51 412.75 419.71 412.2 416.39 420 423.6 418.42 427.68 420.23 430.33 Z M 245 293.37 244.95 294.91 243.35 293.5 245 293.37 Z M 483.92 643.66 487.78 647.42 491.85 647.82 487.14 653.8 477.94 677.29 474.57 682.36 468.83 685.41 465.74 697.2 461.52 698.55 451.94 710.97 445.66 725.12 441.4 728.34 437.09 739.16 432 745.79 406.64 764.35 396.47 768.42 393.99 762.25 394.15 755.51 387.2 752.99 381.99 756.86 379.05 755.26 380.47 742.92 375.44 744.39 374.73 746.18 377.62 747.42 376.51 749.77 370.99 750.02 366.96 746.92 367.13 743.47 371 741.93 377.79 734.17 379.49 735.26 378.42 731.4 382.99 727.65 393.37 708.31 398.69 684.44 396.27 674.11 386.04 660.04 379.99 656.49 366.62 653.97 354.66 640.27 338.41 635.52 331.81 630.49 327.38 620.14 328.33 614.21 332.08 609.6 349.94 599.58 360.02 599.08 369.04 590.07 375.28 556.56 375.62 544.91 379.08 544.98 382.42 548.15 382.07 546.3 387.29 544.67 383.01 541.95 379.76 543.72 384.73 536.34 383.01 535.1 381.05 538.44 379.69 537.41 380.01 530.23 381.43 527.27 389.4 526.1 388.03 524.77 389.49 522.68 383.09 523.5 377.32 503.92 376.85 500.32 383.04 493.96 377.43 497.91 376.33 496.93 369.13 478.73 374.66 479.25 378.15 490.4 378.01 486.28 381.53 485.51 377.07 484.56 384.23 479.98 388.89 481.56 382.81 474.59 380.75 475.49 383.22 471.37 374.8 471.3 371.88 475.96 370.27 474.84 366.21 476.74 361.75 459.51 352.26 445.67 350.51 439.82 351.93 438.1 351.53 441.6 354.34 439.47 359.3 445.99 358.44 447.31 361.05 448.21 359.44 451.22 361.55 452.16 361.57 450.39 363.06 453.45 366.18 447.86 364.15 443.94 365.11 434.95 358.18 436.07 355.14 432.55 361.53 431.69 368.26 426.65 359.39 429.98 356.94 429.08 357.21 427.69 359.94 429.09 363.02 421.29 364.51 421.63 361.64 419.11 361.15 423.2 358.39 425.63 359.47 424.35 355.32 422.12 356.03 418.64 350.74 420.3 354.22 425.32 356.24 424.52 357.68 426.49 354.67 428.15 348.62 422.01 345.22 421.68 341.29 418.37 340.62 413.78 336.37 408.39 338.78 405.67 336.81 402.73 337.52 406.32 335.32 408.38 341.75 420.41 348.02 428.3 350.18 428.62 351.64 433.14 345.3 436.35 342.53 428 311.06 383.6 313.72 375.17 315.76 373.94 318.05 376.12 318.25 372.65 319.65 374.87 320.22 371.35 324.3 367.31 320.96 366.14 320.75 368.78 319.35 364.84 319.38 370.29 311.09 372.2 309.14 380.13 304.1 372.18 306.51 366.55 302.92 370.87 300.45 367.83 303.32 365.21 299.2 365.78 294.81 360.47 297.62 359.6 300.31 354.29 298.15 343.89 279.46 318.93 272.88 314.45 274.37 310.13 280.82 312.27 284.71 310.14 294.14 310.1 291.98 317.09 288.41 313.57 285.13 318.32 289.81 319.6 290.37 325.27 290.49 318.32 291.86 319.01 293.73 328.3 299.83 336.96 296.21 333.06 296.41 335.31 305.54 341.65 303.88 347.88 306.93 348.34 309.2 345.33 308.67 339.09 312.17 337.69 313.19 334.51 313.41 337.91 315.59 337.02 316.25 339.18 311.07 341.29 313.9 346.23 320.54 348.4 320.67 342.86 325.18 345.8 328.18 345.1 330.87 348 327.72 351.57 329.57 353.66 331.93 348.48 336.42 347.62 341.52 355.15 348.68 356.35 350.06 359.27 347.89 359.92 345.04 357.26 342.75 361.38 346.83 361.61 349.72 371.14 350.62 368.57 354.97 368.21 349.99 365.11 356.35 364.75 360.35 360.48 359.58 367.59 362.75 368.34 363.79 371.58 359.17 368.68 361.85 374.39 365.7 375.56 367.89 379.71 366.07 380.73 371.21 385.67 370.93 389.31 366.35 388.7 369.97 391.58 368.39 393.64 371.91 396.25 372.88 401.49 370.41 401.17 367.28 396.65 361.51 397.89 360.25 393.05 359.77 401.2 367.58 400.55 367.07 410.53 373.41 414.1 373.6 418.23 383.6 429.17 382.6 432.82 386.38 433.93 379.72 434 381.01 442.44 377.91 437.59 378.03 449.14 384.86 450.36 380.96 452.48 378.01 451.52 382.67 463.81 378.85 463.3 376.85 459.57 372.61 461.89 375.73 462.38 374.02 463.79 375.49 468.99 379.16 465.08 385.51 465.6 386.18 472.38 388.57 464.79 389.86 470.92 392.97 470.15 393.2 467.25 395.87 467.94 396.44 473.4 403.99 471.78 408.21 476.14 407.92 485.16 409.99 488.73 414.06 489.96 419.95 487.26 422.2 491.87 418.55 473.43 414.05 467.11 417.46 467.01 415.09 465.4 419.32 462.26 416.66 457.03 417.56 452.39 411.18 447.66 410.45 443.31 414.89 442.39 418.16 446.08 419.54 444.61 420.99 447.43 419.7 450.28 423.15 453.23 423.09 455.67 421.21 455.48 424.42 457.22 424 460.97 426.8 458.42 435.49 458.42 428.5 464.91 428.15 468.15 429.72 469.13 430.87 464.96 435.21 466.19 436.85 474.67 435.68 479.68 438.31 479.84 436.32 485.02 438.17 489.09 436.48 486.87 436.33 491.67 439.05 494.32 441.83 504.88 440.31 506.26 445.34 508.79 449.77 516.41 445.11 514.45 446.44 512.84 442.26 509.24 438.57 509.5 441.08 516.56 444.42 516.68 447.73 520.29 450.05 519.02 451.83 522.48 453.39 522.21 452.19 516.07 454.81 520.24 467.06 525.74 476.83 533.46 495.67 539.81 497.51 540.95 494.01 540.96 497.17 543.46 498.19 540.98 504.75 543.44 518.87 537.62 528.78 523 541.84 518.26 542 515.22 556.38 517.04 559.39 520.96 569.7 525.53 570.26 527.93 558.29 546.01 559.7 550.3 556.87 554.41 557.97 557.16 555.88 561.98 557.87 565.33 553.98 578.8 542.38 589.44 538.37 587.58 535.07 588.62 536.44 592.44 531.3 612.79 536.89 615.91 532.16 623.68 529.9 625.74 528.5 619.72 529.77 612.95 508.17 609.92 489.91 618.76 481.99 631.24 483.92 643.66 Z" fill-rule="evenodd"/>
  <rect x="4.56" y="1365.66" width="14.33" height="5.13" fill="#121212" />
  <rect x="134.63" y="1458.72" width="12.69" height="10.31" fill="#121212" />
  <rect x="3.46" y="1344.72" width="16.69" height="23.05" fill="#121212" />
  <rect x="525.09" y="1282.86" width="6.73" height="8.58" fill="#121212" />
  <rect x="780.01" y="963.82" width="7.44" height="9.33" fill="#121212" />
  <rect x="755.16" y="928.50" width="34.27" height="28.64" fill="#121212" />
  <rect x="792.14" y="0.00" width="7.86" height="6.04" fill="#121212" />
  <rect x="15.12" y="1181.71" width="5.08" height="6.37" fill="#121212" />
  <rect x="56.35" y="1100.41" width="3.92" height="3.67" fill="#121212" />
  <rect x="94.50" y="1095.83" width="3.99" height="6.43" fill="#121212" />
  <rect x="0.30" y="1030.59" width="12.38" height="10.02" fill="#121212" />
  <rect x="15.18" y="1000.94" width="8.59" height="10.50" fill="#121212" />
  <rect x="346.30" y="733.97" width="10.92" height="9.71" fill="#121212" />
  <rect x="326.72" y="708.48" width="10.82" height="15.72" fill="#121212" />
  <rect x="391.51" y="457.95" width="12.43" height="7.33" fill="#121212" />
  <rect x="430.68" y="448.31" width="5.78" height="5.19" fill="#121212" />
  <rect x="383.47" y="435.46" width="5.10" height="5.70" fill="#121212" />
  <rect x="395.85" y="422.08" width="5.80" height="5.25" fill="#121212" />
  <rect x="408.50" y="415.39" width="14.09" height="20.34" fill="#121212" />
  <rect x="242.35" y="292.37" width="3.65" height="3.54" fill="#121212" />
</g>
</svg>
